# xmcd
#
# Track frame offsets: 
#        150
#        18508
#        34459
#        51189
#        66853
#        86611
#        102557
#        116215
#        128783
#        146390
#        159990
#        172962
#        188238
#        202083
#        221253
#        239154
#        251900
#        271355
#
# Disc length: 3754 seconds
#
# Revision: 0
# Processed by: cddbd v1.5.2PL0 Copyright (c) Steve Scherf et al.
# Submitted via: ExactAudioCopy v1.0b1
#
DISCID=140ea812
DTITLE=Various Artist - Feel So Good! CD1
DYEAR=2010
DGENRE=Soul
TTITLE0=I Need a Dollar
TTITLE1=Lose It
TTITLE2=F**k You
TTITLE3=She Said
TTITLE4=Tightrope (the solo version)
TTITLE5=Rehab
TTITLE6=Shark In The Water
TTITLE7=L-O-V-E
TTITLE8=A Chance Is Gonna Come
TTITLE9=Another Day
TTITLE10=Going On (album version)
TTITLE11=Dynamite
TTITLE12=Come And Get It (radio edit)
TTITLE13=Good Time (album version)
TTITLE14=Down On My Knees
TTITLE15=Mister H
TTITLE16=Ain't Got You (album version)
TTITLE17=100 Yard Dash
EXTD=
EXTT0=
EXTT1=
EXTT2=
EXTT3=
EXTT4=
EXTT5=
EXTT6=
EXTT7=
EXTT8=
EXTT9=
EXTT10=
EXTT11=
EXTT12=
EXTT13=
EXTT14=
EXTT15=
EXTT16=
EXTT17=
PLAYORDER=
